<?xml version="1.0" standalone="no"?>
<!DOCTYPE svg PUBLIC "-//W3C//DTD SVG 20010904//EN"
 "http://www.w3.org/TR/2001/REC-SVG-20010904/DTD/svg10.dtd">
<svg version="1.0" xmlns="http://www.w3.org/2000/svg"
 width="474.000000pt" height="527.000000pt" viewBox="0 0 474.000000 527.000000"
 preserveAspectRatio="xMidYMid meet">

<g transform="translate(0.000000,527.000000) scale(0.100000,-0.100000)"
fill="#000000" stroke="none">
<path d="M820 2660 l0 -2440 79 0 80 0 3 38 3 37 99 3 c108 3 126 -4 126 -48
0 -22 6 -29 26 -34 15 -4 31 -3 35 1 4 4 9 126 11 270 l3 263 28 27 27 28
1046 2 c866 2 1051 1 1078 -11 61 -25 66 -53 66 -329 0 -145 4 -248 10 -252 5
-3 20 -3 34 1 20 5 26 13 28 42 l3 37 104 3 c113 3 121 0 121 -50 l0 -28 75 0
75 0 0 2440 0 2440 -75 0 -75 0 0 -33 c0 -50 -13 -57 -115 -57 -102 0 -115 7
-115 57 0 31 -2 33 -35 33 l-35 0 0 -235 c0 -269 -6 -298 -69 -337 l-36 -23
-638 -1 c-351 0 -640 3 -643 8 -3 5 -10 6 -15 2 -17 -10 -89 -13 -95 -3 -3 5
-12 5 -23 -1 -11 -6 -141 -9 -328 -7 l-310 2 -37 28 c-20 16 -41 40 -47 54 -5
13 -9 134 -9 269 l0 244 -33 0 c-31 0 -34 -3 -43 -42 l-9 -43 -105 0 -105 0
-3 43 -3 42 -80 0 -79 0 0 -2440z m378 2006 c2 -44 -1 -83 -6 -88 -11 -11
-184 -14 -200 -4 -13 8 -17 158 -5 170 4 4 52 5 107 4 l101 -3 3 -79z m2620
72 c14 -14 16 -136 3 -157 -7 -10 -33 -13 -106 -12 -54 1 -102 4 -107 7 -14 9
-10 162 5 167 26 11 193 7 205 -5z m-409 -418 c55 -27 98 -84 111 -144 8 -36
10 -499 8 -1551 l-3 -1500 -22 -41 c-24 -46 -71 -85 -122 -102 -25 -9 -286
-12 -985 -12 -904 0 -953 1 -991 19 -49 23 -89 64 -109 113 -14 33 -16 206
-16 1558 l0 1521 25 49 c23 45 66 84 115 103 8 3 451 6 983 6 944 1 969 1
1006 -19z m-2221 -18 c16 -11 21 -157 6 -172 -7 -7 -50 -10 -110 -8 l-99 3 -3
78 c-2 50 1 84 9 93 13 16 174 20 197 6z m2626 -8 c11 -11 16 -34 16 -75 0
-95 -4 -99 -113 -99 -59 0 -97 4 -105 12 -16 16 -16 150 0 166 19 19 183 16
202 -4z m-2610 -492 c5 -31 5 -65 0 -85 l-10 -32 -104 0 -105 0 -3 74 c-2 41
-1 80 2 88 4 11 28 13 108 11 l103 -3 9 -53z m2614 46 c14 -14 16 -136 4 -156
-6 -9 -36 -12 -113 -10 l-104 3 -3 74 c-2 41 -1 80 2 88 7 17 196 19 214 1z
m-2629 -437 c18 -12 27 -131 12 -159 -11 -20 -20 -22 -101 -22 -48 0 -95 3
-104 6 -13 5 -16 23 -16 89 0 57 4 85 13 88 21 9 181 7 196 -2z m2631 -10 c5
-11 10 -45 10 -76 0 -91 -5 -95 -113 -95 -59 0 -97 4 -105 12 -16 16 -16 150
0 166 8 8 46 12 105 12 81 0 94 -2 103 -19z m-2620 -450 c15 -30 13 -136 -4
-150 -9 -8 -48 -11 -112 -9 l-99 3 -3 74 c-2 41 -1 80 2 88 4 10 31 13 105 13
89 0 101 -2 111 -19z m2618 7 c14 -14 16 -136 4 -156 -6 -9 -36 -12 -113 -10
l-104 3 -3 74 c-2 41 -1 80 2 88 7 17 196 19 214 1z m-2619 -450 c9 -22 4
-145 -5 -160 -6 -9 -175 -11 -198 -2 -13 5 -16 23 -16 88 0 46 3 86 7 89 3 4
51 7 105 7 93 0 99 -1 107 -22z m2621 3 c5 -11 10 -45 10 -76 0 -91 -5 -95
-113 -95 -59 0 -97 4 -105 12 -16 16 -16 150 0 166 8 8 46 12 105 12 81 0 94
-2 103 -19z m-2620 -510 c3 -43 1 -80 -5 -88 -8 -10 -34 -13 -110 -11 l-100 3
-3 74 c-2 41 -1 80 2 88 4 11 28 13 108 11 l103 -3 5 -74z m2624 63 c9 -23 7
-137 -2 -152 -6 -9 -36 -12 -113 -10 l-104 3 -3 74 c-2 41 -1 80 2 88 4 10 32
13 110 13 85 0 105 -3 110 -16z m-2625 -442 c12 -22 2 -155 -13 -164 -19 -13
-181 -9 -194 4 -17 17 -16 165 1 171 6 3 53 6 104 6 78 1 94 -2 102 -17z
m2619 6 c18 -18 16 -143 -4 -162 -19 -20 -183 -23 -202 -4 -16 16 -16 150 0
166 8 8 46 12 103 12 57 0 95 -4 103 -12z m4 -452 c14 -20 9 -143 -6 -155 -9
-8 -48 -11 -112 -9 l-99 3 0 85 0 85 45 6 c60 8 163 -1 172 -15z m-2624 -3 c5
-10 7 -49 3 -88 l-6 -70 -105 0 -105 0 -3 74 c-2 41 -1 80 2 88 4 10 31 13
105 13 85 0 102 -3 109 -17z m-2 -435 c14 -22 8 -160 -7 -169 -16 -10 -169
-12 -193 -3 -13 5 -16 23 -16 88 0 46 3 86 7 89 12 13 201 8 209 -5z m2622 0
c15 -15 16 -132 2 -159 -9 -17 -22 -19 -103 -19 -59 0 -97 4 -105 12 -16 16
-16 150 0 166 8 8 46 12 103 12 57 0 95 -4 103 -12z"/>
<path d="M2582 4050 c0 -14 2 -19 5 -12 2 6 2 18 0 25 -3 6 -5 1 -5 -13z"/>
<path d="M1440 3451 c0 -5 5 -13 10 -16 6 -3 10 -2 10 4 0 5 -4 13 -10 16 -5
3 -10 2 -10 -4z"/>
<path d="M1420 2931 c0 -25 6 -27 13 -6 4 8 2 17 -3 20 -6 4 -10 -3 -10 -14z"/>
<path d="M2941 2918 c0 -9 -5 -18 -11 -20 -6 -2 -6 -9 0 -18 13 -21 22 -7 17
27 -2 15 -5 21 -6 11z"/>
<path d="M3362 1570 c0 -14 2 -19 5 -12 2 6 2 18 0 25 -3 6 -5 1 -5 -13z"/>
<path d="M2320 1166 c0 -20 2 -36 4 -36 8 0 12 61 4 66 -4 3 -8 -11 -8 -30z"/>
<path d="M2510 4830 c0 -16 4 -30 8 -30 5 0 7 14 4 30 -2 17 -6 30 -8 30 -2 0
-4 -13 -4 -30z"/>
<path d="M2593 4655 c0 -22 2 -30 4 -17 2 12 2 30 0 40 -3 9 -5 -1 -4 -23z"/>
<path d="M2591 4564 c0 -11 3 -14 6 -6 3 7 2 16 -1 19 -3 4 -6 -2 -5 -13z"/>
<path d="M2842 680 c0 -19 2 -27 5 -17 2 9 2 25 0 35 -3 9 -5 1 -5 -18z"/>
<path d="M1903 628 c1 -20 5 -34 9 -30 4 4 3 21 -1 37 -9 30 -9 30 -8 -7z"/>
<path d="M1840 609 c0 -16 4 -28 9 -25 8 5 3 56 -5 56 -2 0 -4 -14 -4 -31z"/>
<path d="M2843 580 c0 -36 2 -50 4 -32 2 17 2 47 0 65 -2 17 -4 3 -4 -33z"/>
<path d="M2791 474 c0 -11 3 -14 6 -6 3 7 2 16 -1 19 -3 4 -6 -2 -5 -13z"/>
<path d="M2783 390 c0 -30 2 -43 4 -27 2 15 2 39 0 55 -2 15 -4 2 -4 -28z"/>
<path d="M1551 414 c0 -11 3 -14 6 -6 3 7 2 16 -1 19 -3 4 -6 -2 -5 -13z"/>
<path d="M2382 370 c0 -25 4 -56 8 -70 l8 -25 0 25 c0 14 -3 45 -7 70 l-8 45
-1 -45z"/>
</g>
</svg>
