<?xml version="1.0" standalone="no"?>
<!DOCTYPE svg PUBLIC "-//W3C//DTD SVG 20010904//EN"
 "http://www.w3.org/TR/2001/REC-SVG-20010904/DTD/svg10.dtd">
<svg version="1.0" xmlns="http://www.w3.org/2000/svg"
 width="900.000000pt" height="900.000000pt" viewBox="0 0 900.000000 900.000000"
 preserveAspectRatio="xMidYMid meet">

<g transform="translate(0.000000,900.000000) scale(0.100000,-0.100000)"
fill="#000000" stroke="none">
<path d="M4725 6784 c-96 -34 -187 -96 -238 -163 -117 -154 -143 -304 -85
-499 20 -66 106 -180 171 -225 108 -75 177 -97 301 -97 149 0 240 36 345 136
123 115 172 257 152 437 -21 186 -158 347 -351 412 -57 19 -239 18 -295 -1z
m83 -68 c4 -20 -20 -105 -49 -172 -21 -51 -53 -64 -160 -64 -94 0 -109 5 -109
36 0 33 121 155 180 182 100 45 132 49 138 18z m275 -18 c23 -11 66 -44 97
-73 118 -113 112 -145 -24 -145 -94 0 -141 13 -158 43 -15 29 -58 166 -58 188
0 9 6 19 13 22 19 6 84 -11 130 -35z m-117 -246 c35 -19 73 -70 84 -114 35
-129 -90 -254 -220 -218 -86 23 -151 121 -136 203 8 42 41 93 78 120 47 35
139 39 194 9z m-441 -124 c96 -66 115 -87 115 -127 0 -48 -50 -202 -69 -209
-20 -8 -67 49 -103 126 -34 74 -50 210 -28 237 7 8 15 15 18 15 4 0 33 -19 67
-42z m793 -37 c3 -84 -14 -147 -64 -226 -62 -100 -78 -96 -118 24 -26 79 -31
116 -19 146 9 24 164 136 183 133 11 -3 16 -20 18 -77z m-327 -301 c104 -80
103 -93 -3 -124 -71 -20 -143 -20 -222 0 -112 29 -112 45 -5 124 108 80 124
80 230 0z"/>
<path d="M3832 6600 c-120 -25 -232 -114 -287 -226 -26 -53 -29 -70 -29 -164
-1 -127 18 -187 83 -263 87 -102 183 -147 315 -147 192 0 343 117 391 305 26
99 13 196 -41 295 -81 149 -266 235 -432 200z m28 -70 c0 -31 -40 -143 -57
-162 -21 -24 -190 -27 -199 -4 -13 33 64 114 149 158 64 34 107 37 107 8z
m197 -1 c62 -27 107 -61 143 -111 43 -59 34 -68 -71 -68 -98 0 -121 13 -134
72 -4 16 -13 41 -21 56 -37 70 -6 89 83 51z m-39 -232 c33 -34 36 -41 37 -95
0 -48 -5 -65 -27 -93 -54 -72 -153 -76 -220 -9 -35 34 -38 42 -38 91 0 100 58
153 158 146 46 -3 59 -9 90 -40z m-355 -96 c65 -49 70 -69 40 -171 -21 -71
-30 -82 -54 -70 -57 31 -125 242 -90 284 16 19 31 12 104 -43z m613 23 c7 -29
-19 -142 -46 -193 -25 -49 -57 -81 -74 -75 -16 6 -56 127 -56 166 0 26 27 54
99 106 47 34 68 33 77 -4z m-286 -261 c54 -37 79 -61 80 -75 0 -4 -15 -15 -32
-25 -24 -13 -57 -17 -123 -18 -99 0 -155 16 -155 45 0 24 117 110 149 110 14
0 51 -17 81 -37z"/>
<path d="M3727 5750 c-27 -5 -64 -19 -82 -31 -57 -39 -65 -70 -65 -242 0 -84
-4 -158 -8 -165 -6 -9 -33 -12 -98 -10 l-89 3 -7 49 c-9 67 -42 99 -100 99
-24 0 -55 -7 -70 -17 -42 -28 -50 -77 -46 -318 3 -202 4 -219 24 -245 28 -37
73 -49 124 -34 44 13 61 37 69 96 l6 40 95 0 95 0 3 -160 c3 -201 15 -232 105
-270 30 -12 87 -15 317 -15 278 0 280 0 280 -21 0 -29 36 -76 73 -97 31 -16
-39 -17 -1493 -22 l-1525 -5 -3 -31 c-2 -18 3 -36 11 -42 11 -9 768 -12 3160
-10 1730 2 3148 5 3151 9 3 3 7 21 8 40 l3 34 -1537 5 -1538 5 35 28 c20 16
43 46 51 67 l16 39 268 3 268 3 39 31 c62 50 72 81 73 226 l0 127 72 3 c72 3
73 3 79 33 9 39 11 419 3 439 -5 13 -22 16 -80 16 l-74 0 0 105 c0 139 -26
194 -105 225 -35 14 -1429 23 -1508 10z m241 -177 l-3 -88 -112 -3 -113 -3 -1
48 c-2 73 1 86 24 111 18 20 30 22 114 22 l94 0 -3 -87z m307 64 c3 -12 5 -52
3 -87 l-3 -65 -115 0 -115 0 -3 88 -3 87 115 0 c112 0 116 -1 121 -23z m305
-67 l0 -91 -112 3 -113 3 -3 88 -3 87 116 0 115 0 0 -90z m308 3 l-3 -88 -112
-3 -113 -3 0 91 0 90 115 0 116 0 -3 -87z m282 67 c18 -18 20 -31 18 -88 l-3
-67 -110 0 -110 0 -3 88 -3 87 96 0 c82 0 98 -3 115 -20z m-1205 -910 l0 -85
-75 -3 c-129 -6 -163 30 -152 161 2 16 13 17 115 15 l112 -3 0 -85z m310 67
c3 -12 5 -52 3 -87 l-3 -65 -115 0 -115 0 -3 88 -3 87 115 0 c112 0 116 -1
121 -23z m305 -67 l0 -91 -112 3 -113 3 -3 88 -3 87 116 0 115 0 0 -90z m305
0 l0 -85 -111 -3 c-130 -3 -125 -8 -116 107 l5 72 111 -3 111 -3 0 -85z m305
21 c0 -64 -2 -71 -27 -91 -23 -18 -38 -20 -112 -18 l-86 3 -5 78 c-3 42 -3 82
-2 87 2 6 52 10 118 10 l114 0 0 -69z"/>
<path d="M5985 5670 c-11 -4 -33 -22 -50 -40 l-30 -31 -3 -417 c-2 -392 -1
-419 16 -452 43 -79 140 -105 202 -54 61 52 60 44 60 492 0 452 0 454 -64 493
-32 20 -95 24 -131 9z"/>
<path d="M5699 5497 c-58 -34 -113 -68 -123 -76 -14 -12 -16 -43 -16 -251 l0
-238 113 -72 c61 -40 119 -73 127 -74 13 -1 15 49 18 387 1 213 -1 387 -5 386
-5 0 -56 -28 -114 -62z"/>
<path d="M1334 4536 c-3 -8 -4 -25 -2 -38 l3 -23 1060 -3 c583 -1 1070 0 1083
3 17 4 22 12 22 40 l0 35 -1080 0 c-927 0 -1081 -2 -1086 -14z"/>
<path d="M5502 4513 l3 -38 1078 -3 c1021 -2 1077 -1 1077 15 0 10 3 28 6 41
l6 22 -1086 0 -1087 0 3 -37z"/>
<path d="M1345 4174 c-18 -19 -20 -48 -2 -62 18 -15 6304 -15 6314 0 11 19 10
62 -1 70 -6 4 -1425 8 -3153 8 -2820 -1 -3144 -2 -3158 -16z"/>
<path d="M2280 3936 c-114 -20 -185 -75 -229 -179 -17 -40 -21 -69 -21 -160 0
-99 3 -118 26 -167 31 -67 85 -125 141 -151 53 -24 189 -35 266 -20 77 14 134
54 175 121 47 80 44 95 -25 115 -32 9 -68 21 -80 26 -18 6 -26 4 -38 -14 -8
-12 -15 -27 -15 -33 0 -7 -16 -26 -35 -43 -30 -26 -44 -31 -86 -31 -44 0 -55
4 -84 33 -26 26 -35 46 -45 104 -12 64 -11 80 5 138 19 72 42 97 105 116 31 9
43 8 75 -7 21 -10 45 -30 54 -46 12 -21 24 -28 46 -28 28 0 145 26 153 34 8 9
-42 90 -78 125 -64 62 -189 89 -310 67z"/>
<path d="M3045 3938 c-88 -10 -143 -38 -200 -100 -60 -65 -85 -138 -85 -243 1
-191 98 -312 271 -338 168 -24 313 25 372 126 93 158 65 397 -56 490 -73 55
-183 79 -302 65z m136 -164 c35 -18 47 -34 64 -90 28 -94 11 -193 -44 -249
-30 -31 -40 -35 -85 -35 -103 0 -146 55 -146 187 0 131 20 171 97 198 40 14
70 11 114 -11z"/>
<path d="M3580 3595 l0 -336 78 3 77 3 3 243 c1 142 6 242 12 242 5 0 12 -17
15 -37 4 -21 13 -58 20 -83 17 -56 38 -138 66 -255 12 -49 26 -96 32 -103 7
-9 32 -12 81 -10 l71 3 12 55 c7 30 19 82 28 115 27 102 45 178 56 235 5 30
16 62 24 70 13 12 15 -17 15 -233 l0 -248 78 3 77 3 3 333 2 332 -134 0 -135
0 -6 -37 c-4 -21 -11 -49 -15 -63 -5 -14 -19 -63 -31 -110 -33 -134 -50 -192
-56 -186 -5 5 -89 316 -100 369 l-5 27 -134 0 -134 0 0 -335z"/>
<path d="M4476 3921 c-7 -10 -5 -618 2 -643 4 -15 17 -18 92 -18 114 0 114 0
107 136 -5 105 -5 105 20 115 13 5 64 9 112 9 165 0 231 61 231 213 0 65 -17
114 -51 146 -49 46 -79 51 -300 51 -114 0 -210 -4 -213 -9z m336 -135 c43 -32
42 -103 -1 -126 -25 -13 -117 -18 -128 -7 -9 9 -15 126 -7 138 8 14 117 10
136 -5z"/>
<path d="M5237 3853 c-16 -43 -34 -94 -41 -113 -65 -170 -78 -203 -87 -225 -4
-11 -17 -45 -28 -75 -11 -30 -29 -80 -40 -110 -12 -30 -21 -58 -21 -63 0 -4
46 -6 102 -5 l101 3 16 51 15 51 60 5 c34 3 90 2 126 -1 l64 -6 11 -40 c5 -22
14 -46 18 -53 10 -14 193 -17 202 -3 5 9 -25 97 -45 133 -6 10 -10 23 -10 29
0 6 -6 25 -14 42 -8 18 -42 109 -77 202 -34 94 -66 175 -70 180 -4 6 -10 25
-14 43 l-7 32 -117 0 -116 0 -28 -77z m169 -166 c6 -23 19 -68 28 -100 9 -32
16 -62 16 -68 0 -6 -29 -9 -72 -7 -85 4 -83 -7 -36 141 34 105 43 110 64 34z"/>
<path d="M5822 3598 l3 -333 93 -3 92 -3 0 168 c0 92 4 174 9 181 5 9 29 -18
78 -90 38 -57 93 -138 122 -181 l53 -78 97 3 96 3 3 333 2 333 -96 -3 -97 -3
1 -140 c1 -77 -2 -158 -6 -180 l-8 -40 -69 103 c-39 57 -95 139 -125 183 l-55
79 -98 0 -97 0 2 -332z"/>
<path d="M6557 3918 c4 -7 63 -95 130 -195 l123 -182 0 -141 0 -141 98 3 97 3
5 140 5 140 121 181 c66 99 124 185 128 192 5 9 -21 12 -106 12 l-113 0 -30
-52 c-16 -28 -39 -68 -50 -87 -50 -87 -60 -96 -73 -63 -4 10 -32 60 -62 110
l-54 92 -114 0 c-88 0 -111 -3 -105 -12z"/>
<path d="M3157 3054 c-11 -12 -8 -342 3 -349 6 -3 19 -4 30 0 16 5 20 17 22
78 l3 72 73 3 c69 3 72 4 72 27 0 23 -3 24 -72 27 l-73 3 0 45 0 45 88 3 c85
3 88 4 85 25 -3 21 -8 22 -114 25 -60 1 -113 -1 -117 -4z"/>
<path d="M3457 3053 c-4 -3 -7 -82 -7 -174 0 -159 1 -168 20 -174 11 -3 24 -3
30 0 6 4 10 74 10 181 l0 174 -23 0 c-13 0 -27 -3 -30 -7z"/>
<path d="M3603 3053 c-10 -3 -13 -48 -13 -173 0 -144 2 -169 16 -174 24 -9
197 -7 212 3 8 5 12 17 10 27 -3 16 -14 19 -86 22 l-82 3 0 143 c0 122 -2 145
-16 150 -18 7 -23 7 -41 -1z"/>
<path d="M3890 2886 c0 -186 2 -192 51 -179 22 6 22 8 16 130 -4 67 -3 123 1
123 8 0 22 -45 49 -159 19 -83 35 -105 67 -95 11 4 21 7 22 8 6 11 34 132 34
148 0 13 9 41 19 63 l19 40 1 -127 c1 -74 5 -129 11 -133 6 -3 19 -3 30 0 20
6 20 14 18 178 l-3 172 -47 3 c-47 3 -47 3 -57 -35 -39 -151 -56 -202 -62
-196 -7 8 -25 71 -39 138 -19 89 -24 95 -80 95 l-50 0 0 -174z"/>
<path d="M4280 3045 c0 -14 21 -103 40 -170 5 -16 14 -55 20 -86 15 -77 28
-93 68 -84 20 4 32 13 32 22 0 9 7 41 16 72 50 176 56 184 73 101 36 -176 57
-214 106 -192 17 8 25 24 33 64 5 29 19 87 30 128 11 41 23 94 27 118 7 42 6
42 -23 42 -33 0 -28 12 -68 -168 -22 -102 -28 -95 -70 91 -18 76 -18 77 -50
77 -17 0 -37 -6 -43 -14 -6 -8 -23 -58 -36 -111 -32 -129 -38 -134 -55 -49
-37 179 -33 169 -68 172 -24 2 -32 -1 -32 -13z"/>
<path d="M4844 3041 c-43 -26 -61 -55 -75 -116 -24 -106 33 -207 125 -222 104
-17 177 27 201 119 15 60 7 121 -23 175 -32 58 -164 83 -228 44z m150 -56 c67
-62 59 -175 -15 -219 -78 -46 -165 43 -145 149 16 82 105 121 160 70z"/>
<path d="M5177 3053 c-4 -3 -7 -82 -7 -174 0 -159 1 -168 20 -174 33 -10 40 3
40 76 l0 70 37 -3 c33 -3 42 -10 82 -67 54 -75 69 -86 104 -77 l26 6 -38 58
c-22 32 -46 64 -55 71 -21 18 -20 31 2 31 31 0 62 42 62 83 0 50 -24 84 -69
97 -40 11 -194 14 -204 3z m173 -56 c15 -8 26 -23 28 -39 5 -38 -32 -60 -95
-56 -48 3 -48 3 -51 42 -2 21 -1 44 2 52 7 18 82 18 116 1z"/>
<path d="M5530 2886 c0 -149 2 -175 16 -180 37 -14 44 -7 44 47 0 45 5 57 32
86 29 31 33 32 42 17 6 -10 26 -40 44 -68 17 -27 32 -53 32 -58 0 -20 31 -32
66 -26 l35 7 -23 32 c-37 50 -108 165 -108 176 0 6 25 37 55 69 30 33 55 62
55 66 0 3 -17 6 -37 6 -33 0 -44 -8 -106 -75 -38 -41 -73 -73 -78 -69 -5 3 -9
36 -9 75 l0 69 -30 0 -30 0 0 -174z"/>
<path d="M5915 3029 c-37 -33 -43 -60 -24 -102 13 -29 39 -44 122 -72 53 -17
62 -24 65 -47 2 -18 -4 -31 -20 -42 -35 -25 -67 -19 -105 19 -37 37 -54 43
-71 22 -17 -20 15 -73 55 -92 26 -12 53 -16 96 -13 52 4 64 9 88 36 20 23 29
43 29 68 0 66 -32 94 -129 115 -27 5 -57 19 -67 30 -16 18 -16 20 1 39 26 29
76 26 105 -5 13 -14 34 -25 47 -25 19 0 23 5 23 30 0 43 -47 70 -122 70 -50 0
-62 -4 -93 -31z"/>
<path d="M1334 2906 c-3 -8 -4 -25 -2 -38 l3 -23 835 0 835 0 3 38 3 37 -836
0 c-715 0 -836 -2 -841 -14z"/>
<path d="M6260 2880 l0 -40 703 2 702 3 3 38 3 37 -705 0 -706 0 0 -40z"/>
<path d="M3981 2537 c-6 -16 -11 -35 -11 -42 0 -8 -5 -26 -12 -40 -10 -23 -16
-25 -82 -25 l-71 -1 26 -22 c15 -12 41 -33 58 -47 l31 -25 -20 -55 c-31 -84
-26 -89 37 -35 23 19 47 35 53 35 7 0 34 -16 60 -35 26 -19 50 -35 53 -35 3 0
-1 21 -9 48 -28 93 -29 87 20 118 25 16 45 33 43 39 -2 5 -25 9 -51 8 -53 -2
-86 20 -86 60 -1 12 -7 36 -14 52 l-14 30 -11 -28z"/>
<path d="M4991 2528 c-6 -17 -11 -38 -11 -48 0 -9 -6 -25 -14 -35 -12 -17 -24
-19 -81 -17 -77 4 -78 -2 -4 -49 54 -36 53 -29 25 -121 -8 -27 -12 -48 -9 -48
3 0 27 16 53 35 26 19 54 35 61 35 8 -1 30 -14 49 -30 19 -17 40 -30 47 -30
16 0 17 -4 -6 60 -22 61 -19 67 35 101 19 11 34 25 34 30 0 5 -22 9 -49 9 -60
0 -75 13 -91 80 -15 62 -25 69 -39 28z"/>
<path d="M5507 2553 c-3 -5 -12 -34 -21 -65 -18 -63 -14 -60 -106 -59 l-55 1
26 -22 c15 -13 41 -34 58 -48 l31 -25 -20 -55 c-31 -84 -26 -89 37 -35 49 41
56 42 97 12 17 -13 41 -29 53 -35 21 -11 21 -11 12 18 -25 82 -29 95 -29 101
0 3 20 19 45 35 25 15 44 33 42 39 -2 5 -27 11 -56 11 -29 1 -56 5 -61 10 -4
5 -15 35 -24 67 -16 57 -21 64 -29 50z"/>
<path d="M3471 2528 c-5 -13 -12 -38 -15 -55 -10 -43 -17 -46 -93 -44 -74 2
-75 -3 -3 -50 55 -36 55 -37 35 -94 -27 -74 -21 -81 34 -41 27 20 54 36 61 36
6 0 30 -16 53 -35 60 -51 70 -46 42 22 -25 60 -20 79 32 114 44 31 45 33 24
41 -13 4 -33 5 -46 2 -44 -11 -64 4 -81 61 -18 63 -30 76 -43 43z"/>
<path d="M4481 2513 c-6 -21 -11 -43 -11 -49 0 -24 -33 -38 -86 -36 -30 0 -54
-3 -54 -8 0 -5 21 -24 46 -42 50 -36 51 -38 20 -131 l-15 -48 45 33 c83 62 65
62 148 0 l45 -33 -15 48 c-31 95 -31 97 21 133 25 17 44 35 40 38 -3 3 -24 5
-46 3 -43 -2 -89 20 -89 42 0 25 -21 87 -30 87 -5 0 -14 -17 -19 -37z"/>
<path d="M1643 2503 c-26 -5 -39 -20 -48 -53 -8 -35 25 -76 68 -85 49 -9 77
-26 77 -46 0 -30 -47 -36 -74 -10 -13 12 -35 21 -54 21 -37 0 -37 -1 -17 -39
18 -36 32 -41 105 -41 70 0 98 19 106 71 8 46 -16 73 -78 90 -24 6 -49 13 -55
15 -18 5 -16 34 3 41 9 3 29 -1 44 -11 47 -27 88 -18 74 17 -11 29 -83 43
-151 30z"/>
<path d="M6805 2480 c-16 -16 -37 -32 -47 -36 -11 -3 -18 -15 -18 -30 0 -28 2
-29 39 -9 16 8 31 11 35 8 3 -4 6 -42 6 -85 l0 -79 33 3 32 3 2 105 c2 58 0
115 -2 128 -8 32 -45 28 -80 -8z"/>
<path d="M7008 2490 c-31 -24 -35 -55 -13 -84 13 -17 12 -22 -5 -44 -25 -32
-25 -53 1 -86 18 -23 28 -26 78 -26 65 0 95 16 105 56 5 20 1 35 -13 55 -17
23 -18 29 -6 45 36 48 3 94 -72 101 -39 4 -53 1 -75 -17z m96 -43 c9 -15 7
-21 -8 -32 -35 -26 -74 13 -44 43 16 16 38 12 52 -11z m-6 -89 c30 -30 -2 -93
-36 -71 -21 13 -27 50 -12 69 15 17 32 18 48 2z"/>
<path d="M7260 2497 c-53 -27 -62 -96 -17 -138 17 -16 31 -20 65 -16 45 5 52
-5 32 -44 -13 -23 -28 -24 -51 -3 -20 18 -59 11 -59 -11 0 -22 34 -35 88 -35
44 0 54 4 76 31 49 58 30 197 -30 219 -34 13 -74 12 -104 -3z m79 -41 c7 -8
11 -27 9 -43 -3 -24 -8 -28 -33 -28 -32 0 -41 18 -31 61 7 27 37 32 55 10z"/>
<path d="M1330 2375 l0 -126 108 3 c99 3 107 4 107 23 0 18 -8 20 -67 23 -56
2 -68 6 -73 22 -10 32 3 40 66 40 56 0 59 1 59 25 0 24 -3 25 -60 25 -53 0
-60 2 -60 20 0 18 7 20 65 20 63 0 65 1 65 25 l0 25 -105 0 -105 0 0 -125z"/>
<path d="M1840 2475 c0 -22 4 -25 40 -25 l40 0 0 -101 0 -100 38 3 37 3 3 98
3 97 39 0 c36 0 40 3 40 25 l0 25 -120 0 -120 0 0 -25z"/>
<path d="M2130 2375 l0 -125 76 0 c120 0 154 30 154 136 0 48 -4 60 -29 85
-28 28 -34 29 -115 29 l-86 0 0 -125z m152 40 c12 -45 -1 -95 -28 -107 -43
-20 -54 -5 -54 72 l0 71 37 -3 c31 -3 38 -7 45 -33z"/>
<path d="M7486 2478 c-3 -13 -7 -42 -9 -65 -4 -38 -3 -41 21 -46 14 -3 34 0
44 6 38 24 78 -42 47 -79 -13 -16 -49 -19 -49 -4 0 17 -43 29 -63 18 -18 -9
-18 -11 4 -34 18 -19 32 -24 75 -24 67 0 81 6 99 41 20 38 19 72 -4 100 -15
19 -29 24 -65 24 -37 0 -46 3 -46 17 0 14 11 18 58 20 50 3 57 6 60 26 3 21 1
22 -82 22 -81 0 -86 -1 -90 -22z"/>
</g>
</svg>
